<svg width="42" height="42" fill="none" xmlns="http://www.w3.org/2000/svg">
  <rect width="42" height="42" rx="21" fill="#fff" fill-opacity=".2"/>
  <path d="M29.867 11.12A13.115 13.115 0 0 0 21 7.707c-7.333 0-13.293 5.96-13.293 13.293 0 7.334 5.96 13.294 13.293 13.294 3.413 0 6.52-1.28 8.867-3.414A13.187 13.187 0 0 0 34.294 21c0-3.92-1.707-7.466-4.427-9.88ZM20.96 26.854c-.027 2.2-1.666 2.733-3.2 2.12A8.585 8.585 0 0 1 12.373 21a8.617 8.617 0 0 1 5.387-7.986c1.534-.614 3.173-.067 3.2 2.12v11.72Z" fill="#fff"/>
</svg>
